<svg t="1694758480396" class="icon" viewBox="0 0 1024 1024" version="1.1" xmlns="http://www.w3.org/2000/svg" p-id="9858" width="200" height="200"><path d="M810 161.613V251h51.023c10.143 0 18.68 7.593 19.863 17.666l13.535 115.317c30.716 262.01 44.214 379.721 44.081 385.325-0.283 11.788-10.65 20.775-22.359 19.382-182.83-21.76-308.9-3.404-378.078 52.888a20.038 20.038 0 0 1-12.164 4.487h-22.836a20 20 0 0 1-12.623-4.487c-69.18-56.292-195.248-74.649-378.079-52.888-11.71 1.394-22.077-7.595-22.359-19.384-0.15-6.367 17.307-157.55 57.616-500.64 1.17-9.958 9.526-17.491 19.515-17.666h45.864l0.001-89.387c103.092-58.646 202.355-54.867 298.5-0.285l-0.5 0.285c103.271-58.748 202.699-54.853 299 0zM213 291H185.27l-16.945 144.512c-8.362 71.447-15.36 131.492-20.995 180.13l-8.572 74.376a18106.76 18106.76 0 0 0-5.21 45.956l-1.139 10.253 3.686-0.374c171.953-17.15 296.014 1.949 372.283 58.997l1.602 1.215h8.544l1.602-1.215c76.27-57.048 200.33-76.147 372.283-58.997l3.685 0.374-2.826-25.263c-1.29-11.416-2.813-24.782-4.57-40.1l-5.759-49.98c-7.23-62.514-16.958-145.922-29.184-250.22L843.235 291h-33.236L810 655c-88.86-33.354-185.491-42.047-298-0.372V655l-0.497-0.187L511 655v-0.373l-1.676-0.623C420.937 621.38 324.807 613.323 213 655V291z m252.838 154.469c-44.97-52.126-111.735-66.663-198.05-44.369-6.98 1.803-11.175 8.912-9.368 15.879 1.806 6.966 8.93 11.152 15.91 9.35 77.408-19.994 133.902-7.694 171.721 36.143 4.705 5.453 12.948 6.067 18.412 1.372 5.464-4.695 6.08-12.922 1.375-18.375z m92.324-10c-4.704 5.453-4.089 13.68 1.375 18.375s13.707 4.081 18.412-1.372c37.82-43.837 94.313-56.137 171.721-36.144 6.98 1.803 14.104-2.383 15.91-9.35 1.807-6.966-2.387-14.075-9.368-15.878-86.315-22.294-153.08-7.757-198.05 44.369z m-92.324-115c-44.97-52.126-111.735-66.663-198.05-44.369-6.98 1.803-11.175 8.912-9.368 15.879 1.806 6.966 8.93 11.152 15.91 9.35 77.408-19.994 133.902-7.694 171.721 36.143 4.705 5.453 12.948 6.067 18.412 1.372 5.464-4.695 6.08-12.922 1.375-18.375z m92.324-9c-4.704 5.453-4.089 13.68 1.375 18.375s13.707 4.081 18.412-1.372c37.82-43.837 94.313-56.137 171.721-36.144 6.98 1.803 14.104-2.383 15.91-9.35 1.807-6.966-2.387-14.075-9.368-15.878-86.315-22.294-153.08-7.757-198.05 44.369z" fill="#1296db" p-id="9859"></path></svg>